<svg width="216" height="138" fill="none" xmlns="http://www.w3.org/2000/svg"><path d="M125.055 39.59a45.58 45.58 0 00-.572 1.418l-.479-.184c.185-.48.38-.964.579-1.435l.472.2zm84.171 33.991a46.12 46.12 0 01-.784 1.913l-.47-.205a46.29 46.29 0 001.141-2.876l.483.173c-.119.332-.242.664-.37.995zm1.325-3.974l-.493-.14c.28-.99.53-2 .741-3.003l.502.106a45.949 45.949 0 01-.75 3.037zm-3.457 8.71a45.67 45.67 0 01-1.537 2.724l-.438-.267a45.429 45.429 0 001.52-2.694l.455.237zm4.747-14.828l-.508-.072a44.69 44.69 0 00.322-3.076l.512.036a45.716 45.716 0 01-.326 3.112zm-8.006 20.164a45.29 45.29 0 01-1.898 2.488l-.396-.325a45.074 45.074 0 001.876-2.46l.418.297zm8.443-26.403h-.513a46.07 46.07 0 00-.104-3.088l.512-.035c.07 1.034.105 2.085.105 3.123zM199.87 88.495c-.714.758-1.463 1.5-2.225 2.205l-.349-.377a45.042 45.042 0 002.2-2.18l.374.352zm11.983-37.477l-.508.07a44.75 44.75 0 00-.527-3.047l.503-.104a46.38 46.38 0 01.532 3.081zm-16.579 41.728a45.675 45.675 0 01-2.505 1.878l-.293-.42a45.34 45.34 0 002.477-1.858l.321.4zm15.305-47.847l-.494.139a45.89 45.89 0 00-.937-2.948l.483-.172c.348.978.667 1.98.948 2.98zm-20.437 51.427a46.315 46.315 0 01-2.736 1.519l-.234-.457a45.64 45.64 0 002.706-1.502l.264.44zm18.34-57.318l-.47.204a45.773 45.773 0 00-1.329-2.794l.455-.236c.478.923.93 1.873 1.344 2.826zm-23.909 60.165c-.956.409-1.937.79-2.917 1.132l-.169-.484a45.695 45.695 0 002.884-1.12l.202.472zm21.031-65.719l-.438.267a46.057 46.057 0 00-1.698-2.588l.419-.296c.6.85 1.178 1.73 1.717 2.617zm-26.934 67.782a46.34 46.34 0 01-3.042.725l-.102-.503a45.938 45.938 0 003.008-.716l.136.494zm23.325-72.893l-.398.323a45.124 45.124 0 00-2.036-2.332l.374-.35c.71.758 1.403 1.552 2.06 2.359zm-29.451 74.133a45.685 45.685 0 01-3.112.301l-.031-.511a45.394 45.394 0 003.076-.299l.067.509zm25.174-78.705l-.35.376a44.528 44.528 0 00-2.339-2.032l.323-.398a45.223 45.223 0 012.366 2.054zm-31.409 79.094a45.9 45.9 0 01-3.126-.128l.039-.512c1.023.078 2.063.12 3.091.127l-.004.513zm26.544-83.032l-.294.42a44.989 44.989 0 00-2.593-1.687l.265-.439a45.84 45.84 0 012.622 1.706zm-32.78 82.559a45.31 45.31 0 01-3.078-.557l.109-.501c1.003.217 2.027.403 3.043.551l-.074.507zm27.425-85.787l-.234.456a45.6 45.6 0 00-2.799-1.317l.203-.47c.955.41 1.907.858 2.83 1.33zm-33.536 84.463a46.878 46.878 0 01-2.973-.972l.176-.482a45.84 45.84 0 002.94.961l-.143.493zm27.621-86.448a45.911 45.911 0 00-2.951-.929l.137-.494c1 .278 2.004.593 2.984.939l-.17.484zm-5.958-1.654a45.415 45.415 0 00-3.05-.516l.068-.508c1.028.138 2.066.313 3.085.522l-.103.502zm-6.128-.82a45.076 45.076 0 00-3.088-.092l-.003-.513a45.49 45.49 0 013.124.093l-.033.511zm-6.176.03a45.3 45.3 0 00-3.074.333l-.073-.508a45.82 45.82 0 013.109-.337l.038.511zm-6.118.877a45.65 45.65 0 00-3 .75l-.142-.493a46.145 46.145 0 013.035-.76l.107.502zm-5.943 1.704a45.7 45.7 0 00-2.871 1.152l-.207-.47a45.9 45.9 0 012.904-1.164l.174.482zm-5.657 2.497c-.911.479-1.816.994-2.689 1.532l-.269-.436a45.75 45.75 0 012.719-1.55l.239.454zm-5.268 3.244a45.636 45.636 0 00-2.455 1.885l-.326-.396a45.816 45.816 0 012.483-1.906l.298.417zm-4.775 3.935a44.726 44.726 0 00-2.175 2.204l-.377-.347a45.2 45.2 0 012.199-2.23l.353.373zm-4.192 4.554a44.95 44.95 0 00-1.848 2.48l-.422-.291a46.235 46.235 0 011.869-2.51l.401.32zm-3.521 5.083a45.812 45.812 0 00-1.489 2.711l-.458-.232c.469-.927.976-1.85 1.506-2.741l.441.262zm20.38 64.356l-.209.469c-.473-.21-.945-.43-1.403-.653l.224-.461c.453.22.92.437 1.388.645z" fill="#E6E6E6"/><path d="M133.402 59.494H10.708v78.264h122.694V59.494z" fill="#3F3D56"/><path d="M116.945 137.686c-.059-.096-1.447-2.413-1.928-7.225-.441-4.414-.157-11.855 3.702-22.235 7.31-19.663-1.685-35.528-1.777-35.686l.444-.258c.023.04 2.344 4.085 3.715 10.526a45.92 45.92 0 01-1.902 25.597c-7.298 19.63-1.872 28.922-1.816 29.014l-.438.267z" fill="#E6E6E6"/><path d="M114.086 71.385a3.334 3.334 0 100-6.668 3.334 3.334 0 000 6.668z" fill="#558BE4"/><path d="M124.601 83.695a3.334 3.334 0 100-6.668 3.334 3.334 0 000 6.668z" fill="#E6E6E6"/><path d="M117.42 91.902a3.334 3.334 0 100-6.668 3.334 3.334 0 000 6.668zm8.72 6.925a3.334 3.334 0 100-6.669 3.334 3.334 0 000 6.669z" fill="#558BE4"/><path d="M114.856 109.598a3.334 3.334 0 100-6.668 3.334 3.334 0 000 6.668zm4.103 28.211s-3.334-8.207 6.668-14.362l-6.668 14.362zm-4.101-.149s-1.517-8.727-13.261-8.652l13.261 8.652z" fill="#E6E6E6"/><path d="M81.52 76.96a23.732 23.732 0 017.076 4.786l2.058-2.058a26.58 26.58 0 00-8.373-5.566l-.76 2.838zM49.53 91.428a23.642 23.642 0 014.68-8.3l-2.062-2.062a26.505 26.505 0 00-5.428 9.61l2.81.752z" fill="#558BE4"/><path d="M93.17 82.536l-2.08 2.079a23.586 23.586 0 013.607 7.189l2.806-.752a26.46 26.46 0 00-4.334-8.516z" fill="#E6E6E6"/><path d="M54.853 78.409l2.066 2.065a23.622 23.622 0 018.269-4.476l-.752-2.807a26.488 26.488 0 00-9.583 5.218zm-6.445 20.217c0-1.172.087-2.343.26-3.502l-2.818-.756a26.733 26.733 0 00.492 10.882l2.805-.751a23.616 23.616 0 01-.739-5.873z" fill="#558BE4"/><path d="M77.882 121.546a23.61 23.61 0 01-7.987.627l-.76 2.839c3.18.351 6.397.127 9.499-.661l-.752-2.805z" fill="#E6E6E6"/><path d="M50.388 108.092l-2.837.76a26.59 26.59 0 005.9 8.709l2.058-2.059a23.748 23.748 0 01-5.12-7.41z" fill="#558BE4"/><path d="M98.32 94.759l-2.823.756a23.707 23.707 0 01-.24 7.676l2.811.753a26.76 26.76 0 00.252-9.185z" fill="#E6E6E6"/><path d="M68.898 75.191a23.713 23.713 0 019.03.527l.75-2.805a26.75 26.75 0 00-10.537-.545l.757 2.823z" fill="#558BE4"/><path d="M66.143 121.525a23.55 23.55 0 01-7.712-3.582l-2.084 2.084a26.428 26.428 0 009.045 4.302l.751-2.804zm23.825-3.308l-2.06-2.06a23.725 23.725 0 01-6.43 4.155l.76 2.836a26.545 26.545 0 007.73-4.931zm4.261-11.375a23.637 23.637 0 01-3.72 6.552l2.07 2.07a26.5 26.5 0 004.467-7.868l-2.817-.754zM26.323 63.937H13.385v5.131h12.938v-5.13z" fill="#E6E6E6"/><path d="M26.323 71.745H13.385v5.131h12.938v-5.13z" fill="#558BE4"/><path d="M91.679 12.434s1.457 4.787.624 6.245c-.832 1.457 1.457 4.58 5.204 3.122 3.748-1.457 3.956-3.122 3.956-3.122s-1.457-2.29-1.874-7.078l-7.91.832zM72.632 59.376s-7.495 3.747-4.164 8.743c1.936 2.904 5.63 8.551 8.385 12.771a42.59 42.59 0 015.246 11.438l.525 1.812 2.081 2.498 4.372-4.996s-6.453-11.865-6.453-14.155c0-2.29-5.205-9.576-5.205-9.576l5.205-3.33s-5.83-6.662-9.992-5.205zm24.355 12.907s.209 5.828.417 8.118c.172 1.89-1.499 7.179-.92 13.064.354 3.807.312 7.64-.126 11.439l-.828 7.555 6.245.625 2.082-17.07s1.249-12.074.625-16.03l.208-8.326s-4.58-1.665-7.703.625z" fill="#FFB9B9"/><path d="M85.85 48.03s-14.572 9.368-14.78 12.283c0 0 8.327-.833 8.535 6.453 0 0 4.996-1.873 6.245-2.29 1.25-.416 7.91-4.788 7.91-4.788s2.707 2.082 2.707 5.413c0 3.33-.208 9.16 0 9.576.208.416 4.996-5.621 8.951-.417l2.707-14.364s.832-8.743-.833-9.367l-11.658-4.372-9.784 1.874z" fill="#2F2E41"/><path d="M94.697 15.036a6.245 6.245 0 100-12.49 6.245 6.245 0 000 12.49z" fill="#FFB9B9"/><path d="M93.136 19.72s7.044 1.86 7.998-1.672c0 0 8.656 1.672 10.113 7.292 1.457 5.62-3.539 19.152-3.539 19.568 0 .416 4.164 2.914 2.29 4.163-1.873 1.25-3.539-.208-2.706 1.458.833 1.665 2.29 2.081 1.041 2.498-1.249.416-8.743-6.037-14.572-4.372-5.829 1.666-8.743.416-8.743.416l-2.614-22.588a5.217 5.217 0 011.855-4.631c1.305-1.074 3.036-2.234 4.714-2.549 3.33-.624 3.469-.966 3.469-.966l.694 1.383z" fill="#D0CDE1"/><path d="M86.475 56.15s1.873 10.616 4.371 9.159c2.498-1.457-.624-9.16-.624-9.16h-3.747zm8.696 1.373s-3.246 10.28-.358 10.143c2.89-.137 3.68-8.41 3.68-8.41l-3.322-1.733z" fill="#FFB9B9"/><path d="M83.664 93.724s-1.457-1.665-2.29.625c-.832 2.29-3.122 5.204-3.122 5.204s-4.996 5.621-1.457 5.829c3.538.208 8.535-4.996 8.535-4.996l5.828-5.413s-1.931-4.705-2.84-4.746c-.907-.042-.698 5.579-4.654 3.497zm13.531 17.278s-1.467.428-1.358-1.347c0 0-5.303 2.804-3.846 4.886a93.598 93.598 0 003.123 4.163s7.702 4.372 8.327 3.331c.624-1.041.624-3.122.208-3.955-.417-.833-2.498-2.29-1.874-3.539.625-1.249-.208-4.58-1.249-4.58-1.04 0-3.33 1.041-3.33 1.041zM89.247 3.499s2.01-4.353 5.86-3.349c3.85 1.005 6.027 2.512 6.194 4.018.168 1.507-.083 3.767-.083 3.767s-.419-3.097-3.098-2.427c-2.678.67-6.864.167-6.864.167l-.67 6.027s-.753-1.088-1.59-.418c-.837.67-2.427-6.446.251-7.785z" fill="#2F2E41"/><path d="M107.708 25.132s-4.996 13.531-4.58 15.196c.417 1.666 0 1.874-.624 2.29-.625.417-2.29 4.788-2.29 4.788s-1.04 2.498-1.873 3.123c-.833.624-.833 2.29-.833 2.29s-2.082 2.081-1.665 2.498c.416.416.416 1.04-.417 1.665-.832.624-1.665 1.457-1.249 1.665.416.209 3.33 2.498 4.164 2.29.832-.208-.417-1.04.624-1.457 1.041-.416 1.665-1.04 1.249-1.249-.416-.208-1.665-.208-.416-.625 1.249-.416 5.62-3.122 7.078-6.453 1.457-3.33 8.439-23.482 4.219-26.313 0 0-1.721-2.206-3.387.292zm-23.107-2.29l-.085.035a5.241 5.241 0 00-3.114 3.77c-.454 2.175-.902 5.322-.548 8.269.624 5.204 1.04 7.494 1.874 9.16.832 1.665 1.04 1.04.832 2.29-.208 1.248-1.249.208-.208 1.873 1.04 1.665 1.665 1.249 1.25 2.082-.417.832-1.042.832-.21 1.873.834 1.04.834 1.457 1.042 1.874.208.416.832 3.538.832 3.538s3.331-1.04 5.205-.624c0 0-1.666-2.914-1.25-3.539.417-.624 1.041-.833.417-1.457-.625-.625-1.665-.416-.625-1.041 1.041-.624-.832-7.078-.832-7.078L84.6 22.842z" fill="#D0CDE1"/><path d="M141.155 70.638l-.325-.306 24.477-25.976h19.925v.446H165.5l-24.345 25.836z" fill="#3F3D56"/><path d="M195.195 47.768h-23.514v.797h23.514v-.797zm0 3.387h-23.514v.797h23.514v-.797zm0 3.388h-23.514v.797h23.514v-.797zm-2.453 58.141h-23.515v.797h23.515v-.797zm0 3.388h-23.515v.797h23.515v-.797zm0 3.387h-23.515v.798h23.515v-.798z" fill="#558BE4"/><path d="M182.703 108.684h-23.541l-.066-.096-18.293-26.547.367-.253 18.227 26.45h23.306v.446z" fill="#3F3D56"/></svg>