<svg width="169" height="142" fill="none" xmlns="http://www.w3.org/2000/svg"><g clip-path="url(#clip0)"><path d="M165.851 48.302c.196.766.38 1.537.552 2.31h-58.352v-2.31h57.8z" fill="#E6E6E6"/><path d="M163.991 42.21a71.271 71.271 0 00-4.687-10.474v17.197h5.043v-5.699l-.356-1.023z" fill="#E6E6E6"/><path d="M160.711 34.44h-1.407v-2.312h.213c.413.762.811 1.532 1.194 2.311zm3.28 7.77h-4.687v2.311h5.043v-1.287l-.356-1.024z" fill="#CCC"/><path d="M156.574 28.978h-5.042v19.955h5.042V28.978z" fill="#E6E6E6"/><path d="M156.574 32.129h-5.042v2.31h5.042v-2.31zm0 10.082h-5.042v2.311h5.042v-2.31z" fill="#CCC"/><path d="M133.583 28.862h-18.085a1.052 1.052 0 00-1.052 1.051v18.085a1.052 1.052 0 001.052 1.051h18.085a1.053 1.053 0 001.051-1.05V29.912a1.051 1.051 0 00-1.051-1.051z" fill="#E6E6E6"/><path d="M132.298 30.147h-15.515a1.052 1.052 0 00-1.052 1.051v15.515a1.056 1.056 0 001.052 1.052h15.515a1.052 1.052 0 001.051-1.052V31.198a1.051 1.051 0 00-1.051-1.051z" fill="#fff"/><path d="M129.592 32.852h-10.104a1.056 1.056 0 00-1.051 1.052v10.103a1.051 1.051 0 001.051 1.052h10.104a1.058 1.058 0 001.051-1.052V33.904a1.051 1.051 0 00-1.051-1.052z" fill="#CCC"/><path d="M128.969 42.225l-2.134-3.696a.467.467 0 00-.809 0l-1.558 2.699-2.044-3.54a.467.467 0 00-.809 0l-2.134 3.697-2.539 4.397h4.896l-.485.84h10.155l-2.539-4.397zm-.753-5.685a1.47 1.47 0 100-2.94 1.47 1.47 0 000 2.94z" fill="#fff"/><path d="M168.083 64.63a63.753 63.753 0 00-.108-2.706 45.6 45.6 0 00-.086-1.285h-9.865a1.052 1.052 0 00-1.052 1.052v18.085a1.047 1.047 0 001.052 1.051h9.094c.046-.266.091-.537.131-.806.025-.159.051-.32.074-.479.056-.38.11-.761.159-1.142a73.057 73.057 0 00.587-7.253v-.002c.021-.722.032-1.448.032-2.176v-2.804c0-.514-.004-1.026-.018-1.535z" fill="#E6E6E6"/><path d="M168.083 64.63a63.76 63.76 0 00-.108-2.706h-8.666a1.053 1.053 0 00-1.052 1.052V78.49a1.056 1.056 0 001.052 1.051h8.014c.056-.38.11-.761.159-1.142a73.064 73.064 0 00.587-7.253v-.002c.021-.722.032-1.448.032-2.176v-2.804c0-.514-.004-1.026-.018-1.535z" fill="#fff"/><path d="M168.083 64.63h-6.068a1.052 1.052 0 00-1.052 1.052v10.103a1.057 1.057 0 001.052 1.052h5.657c.205-1.877.338-3.773.397-5.69v-.003c.021-.722.032-1.447.033-2.175v-2.804c0-.514-.005-1.026-.019-1.535z" fill="#CCC"/><path d="M168.069 71.147a72.628 72.628 0 01-.587 7.253h-3.603l.486-.84h-4.897l1.495-2.59 1.042-1.807 2.136-3.696a.466.466 0 01.808 0l2.045 3.54 1.075-1.86z" fill="#fff"/><path d="M150.364 18.896h-42.313v-2.31h40.215a73.938 73.938 0 012.098 2.31z" fill="#E6E6E6"/><path d="M130.527 2.87a71.92 71.92 0 015.042 3.049v11.295h-5.042V2.869z" fill="#E6E6E6"/><path d="M135.568 10.493h-5.042v2.31h5.042v-2.31z" fill="#CCC"/><path d="M143.341 11.854v5.36h-5.043V7.818a70.477 70.477 0 015.043 4.035z" fill="#E6E6E6"/><path d="M143.341 11.854v.948h-5.043v-2.308h3.447a69.97 69.97 0 011.596 1.36z" fill="#CCC"/><path d="M125.379.294a70.13 70.13 0 013.935 1.921l-1.037 2.094-3.447 6.965-1.026 2.07-1.605 3.241-.353.713-1.437-.713-3.079-1.526 1.955-3.953h.003l1.023-2.07 3.449-6.966 1.014-2.047.012-.023.593.294z" fill="#E6E6E6"/><path d="M129.302 2.236l-1.026 2.073-4.516-2.239 1.014-2.047.012-.023.593.294 3.923 1.942zm-8.991 6.8l-1.025 2.07 4.518 2.238 1.025-2.071-4.518-2.237z" fill="#CCC"/><path d="M167.248 80.021c-.039.269-.084.54-.13.806a53.301 53.301 0 01-.267 1.505h-58.8v-2.31h59.197z" fill="#E6E6E6"/><path d="M135.568 60.696h-5.042v19.956h5.042V60.696z" fill="#E6E6E6"/><path d="M135.568 63.847h-5.042v2.31h5.042v-2.31zm0 10.083h-5.042v2.31h5.042v-2.31z" fill="#CCC"/><path d="M143.34 60.696h-5.041v19.956h5.041V60.696z" fill="#E6E6E6"/><path d="M143.34 63.847h-5.041v2.31h5.041v-2.31zm0 10.083h-5.041v2.31h5.041v-2.31z" fill="#CCC"/><path d="M126.183 60.614l-8.854 17.884 4.518 2.236 8.854-17.883-4.518-2.237z" fill="#E6E6E6"/><path d="M124.785 63.438l-1.025 2.07 4.518 2.237 1.025-2.07-4.518-2.237zm-4.474 9.036l-1.025 2.07 4.518 2.237 1.025-2.07-4.518-2.237z" fill="#CCC"/><path d="M69.38 88.927c.211.12.412.258.601.411l20.803-6.473 1.173-5.162 8.02.753-1.189 9.338a3.515 3.515 0 01-2.936 3.028L71.37 94.698a4.61 4.61 0 11-1.99-5.771z" fill="#FFB8B8"/><path d="M103.684 81.552l-.138-2.355v-.003l-.037-.645-.407-6.935a5.484 5.484 0 00-6.231-5.89 5.501 5.501 0 00-4.709 4.949l-.843 3.51-1.475 6.137a1.966 1.966 0 001.014 2.216c.227.119.476.192.732.215l2.458.22 2.367.21 2.731.243.197.016.504.047 1.69.15h.004a2.004 2.004 0 001.547-.552c.149-.145.274-.312.372-.496a1.93 1.93 0 00.224-1.037z" fill="#558BE4"/><path d="M126.511 52.992c0 7.997-7.394 6.788-16.516 6.788-9.121 0-16.516 1.21-16.516-6.788 0-7.997 3.612-22.172 16.516-22.172 13.349 0 16.516 14.175 16.516 22.172z" fill="#2F2E41"/><path d="M117.799 56.511c4.34-4.34 4.34-11.377 0-15.717-4.341-4.34-11.377-4.34-15.718 0-4.34 4.34-4.34 11.377 0 15.717 4.341 4.34 11.377 4.34 15.718 0z" fill="#FFB8B8"/><path d="M125.585 64.439a6.855 6.855 0 00-.68-.575 7.225 7.225 0 00-5.288-1.4l-20.48 2.592a7.27 7.27 0 00-6.344 7.893 140.35 140.35 0 00.516 4.881c.201 1.642.447 3.376.739 5.14.254 1.519.544 3.059.876 4.58a74.447 74.447 0 00.797 3.292c.06.22.119.437.18.652.163.584.336 1.157.514 1.72 1.334 4.19 3.098 7.757 5.427 9.655.031.028.061.051.094.077l.093.072.136-.042.575-.17.49-.15 6.393-1.923 1.592-.479 5.112-1.54h.002l4.676-1.406.57-.173 4.017-1.208.128-1.5.173-1.991.103-1.197.813-9.435.474-5.505.514-5.977a7.254 7.254 0 00-2.212-5.883z" fill="#2F2E41"/><path d="M137.036 110.093c-.053-.156-.105-.313-.159-.467-2.402-7.01-5.944-12.312-11.157-15.2l-.004-.002-.089-.049-4.543 1.573-.56.194-.584.203-.008.002-4.252 1.472-.007.002-3.337 1.155h-.002l-3.087 1.068h-.002l-.717.25-5.396 1.867-.626.217-.561.194-.086.03-.016.267-.386 6.757-.026.467-.481 8.433-15.985 22.644H95.9a71.988 71.988 0 0010.945-.834l10.26-11.057a.685.685 0 01.679-.18.675.675 0 01.476.516l1.507 7.478a72.298 72.298 0 0020.562-11.314c-.72-5.807-1.772-11.099-3.293-15.686zM97.1 47.562h4.395l1.939-5.43.388 5.43h2.101l1.131-3.167.226 3.167h15.612a11.77 11.77 0 00-7.263-10.87 11.767 11.767 0 00-4.502-.895h-2.263a11.765 11.765 0 00-11.765 11.765z" fill="#2F2E41"/><path d="M70.061 106.445a5.324 5.324 0 01-7.257-3.74l-18.802-2.13 6.303-7.547 16.888 3.18a5.353 5.353 0 012.868 10.237z" fill="#A0616A"/><path d="M59.924 92.475l-7.947-1.42-.577-.103a3.32 3.32 0 01-2.596-4.227l3.902-12.966.117-.385a7.586 7.586 0 00-3.559-8.765 7.542 7.542 0 00-10.986 4.8L33.3 89.72l-.185.753a10.152 10.152 0 008.92 12.524c.015.002.03.002.046.005l2.98.264 3.864.343 4.86.432 4.535.405a2.38 2.38 0 002.556-1.958c.007-.033.012-.066.017-.099l.962-7.187.01-.065a2.377 2.377 0 00-1.942-2.662z" fill="#CCC"/><path d="M47.68 38.017c-3.172 6.237-5.672 12.67-12.67 12.67a12.67 12.67 0 01-12.67-12.67c0-6.998 5.674-12.583 12.67-12.67 7.112-.09 18.575 1.06 12.67 12.67zm7.959 81.593l-.288-2.869-.215.012-37.78 1.82.098 2.904.166 4.975a72.143 72.143 0 0019.251 10.479l.246-1.902a.682.682 0 01.629-.584.68.68 0 01.698.5l.745 2.779a71.36 71.36 0 0018.597 3.367L55.64 119.61z" fill="#2F2E41"/><path d="M43.493 47.678c4.34-4.34 4.34-11.377 0-15.717s-11.377-4.34-15.717 0-4.34 11.377 0 15.717 11.377 4.34 15.717 0z" fill="#A0616A"/><path d="M57.81 116.935l-2.204-6.842-.037-.116-.112-.351-.629-1.949a55.225 55.225 0 01-.577-1.906 49.54 49.54 0 01-.465-1.729 59.996 59.996 0 01-1.808-12.987 59.727 59.727 0 011.268-14.092 19.11 19.11 0 00-9.425-20.695 18.789 18.789 0 00-8.183-2.325 18.917 18.917 0 00-15.174 6.136 19.03 19.03 0 00-4.823 15.742l2.627 17.633-.599 7.424-.705 8.748-.038.467-.752 9.328a2.031 2.031 0 002.028 2.199c.038 0 .073 0 .11-.003l37.327-2.007.341-.018a2.032 2.032 0 001.83-2.657z" fill="#CCC"/><path d="M47.428 33.539a15.116 15.116 0 01-8.639 2.67 9.262 9.262 0 003.672 1.51 30.48 30.48 0 01-12.45.07 8.057 8.057 0 01-2.607-.895c-.789-.48-1.45-1.242-1.608-2.152-.273-1.56.942-2.978 2.206-3.933a16.277 16.277 0 0113.677-2.733c1.527.395 3.058 1.062 4.05 2.289s1.286 3.118.34 4.381l1.359-1.207z" fill="#2F2E41"/><path d="M47.996 104.133a5.333 5.333 0 01-4.504-.078 5.336 5.336 0 01-2.832-3.504l-18.844-1.722 6.138-7.682 16.953 2.813a5.354 5.354 0 013.09 10.173z" fill="#A0616A"/><path d="M37.56 90.386l-4.259-.665-4.297-.673a3.32 3.32 0 01-2.687-4.169l3.73-13.435a7.586 7.586 0 00-3.749-8.685 7.472 7.472 0 00-6.684-.176 7.496 7.496 0 00-4.195 5.209l-4.703 21.171a10.155 10.155 0 009.232 12.333l16.27 1.091a2.376 2.376 0 002.513-2.012c.008-.032.01-.065.014-.098l.807-7.206.007-.065a2.378 2.378 0 00-1.998-2.62z" fill="#CCC"/><path d="M109.639 79.217l-.975.532-12.013 6.555-.975.532a2.036 2.036 0 00-.811 2.76l8.946 16.395a2.037 2.037 0 002.759.812l.003-.002 13.958-7.616h.002a2.038 2.038 0 00.812-2.76l-8.946-16.396a2.038 2.038 0 00-2.76-.812z" fill="#E6E6E6"/><path d="M109.92 79.732l-1.155.63-11.653 6.358-1.155.63a1.45 1.45 0 00-.578 1.965l8.946 16.396a1.454 1.454 0 001.965.578l.003-.002 13.957-7.616h.003a1.448 1.448 0 00.578-1.966l-8.946-16.396a1.45 1.45 0 00-1.965-.577z" fill="#fff"/><path d="M110.248 84.36a.341.341 0 00-.461-.135l-.465.255-4.741 2.586a.34.34 0 00.325.596l5.206-2.841a.343.343 0 00.136-.46zm1.773.335a.33.33 0 00-.202-.163.332.332 0 00-.256.03l-6.433 3.509a.339.339 0 00.325.594l.299-.164 1.871-1.021h.003l4.257-2.325a.327.327 0 00.164-.202.328.328 0 00-.028-.258zm-6.991 5.593l-2.043-3.745a.163.163 0 00-.221-.063l-.991.54-.514.28-2.76 1.505-.535.292a.164.164 0 00-.063.222l.131.24 1.911 3.505a.163.163 0 00.22.063l3.294-1.796.515-.28.99-.54a.17.17 0 00.05-.041.17.17 0 00.035-.12.164.164 0 00-.019-.062zm7.799-1.175a.336.336 0 00-.457-.135l-7.062 3.853a.34.34 0 00-.067.547l.002.002a.341.341 0 00.39.046l7.061-3.853a.343.343 0 00.163-.202.345.345 0 00-.03-.258zm1.776.334a.329.329 0 00-.203-.162.334.334 0 00-.257.029l-8.288 4.521a.323.323 0 00-.143.149.328.328 0 00-.028.204v.002a.333.333 0 00.105.192.336.336 0 00.391.047l8.287-4.522a.339.339 0 00.136-.46zm-11.66 7.134a1.437 1.437 0 100-2.874 1.437 1.437 0 000 2.874z" fill="#E6E6E6"/><path d="M113.845 72.909l-.975.532-12.013 6.554-.975.532a2.037 2.037 0 00-.811 2.76l8.946 16.395a2.034 2.034 0 002.76.812l.002-.002 13.958-7.615.002-.002a2.034 2.034 0 00.812-2.76l-8.946-16.395a2.038 2.038 0 00-2.76-.811z" fill="#CCC"/><path d="M114.125 73.423l-1.155.63-11.653 6.358-1.155.63a1.45 1.45 0 00-.577 1.966l8.945 16.395a1.452 1.452 0 001.966.578l.002-.002 13.958-7.615.003-.002a1.452 1.452 0 00.577-1.965L116.091 74a1.452 1.452 0 00-1.966-.578z" fill="#fff"/><path d="M114.453 78.052a.34.34 0 00-.46-.136l-2.397 1.309-.669.364-2.14 1.168a.341.341 0 00-.134.46.34.34 0 00.459.136l2.523-1.376.528-.29 2.155-1.175a.341.341 0 00.135-.46zm1.774.334a.332.332 0 00-.458-.133l-3.344 1.824-.514.28-2.575 1.405a.338.338 0 00.325.594l2.575-1.405.514-.28 3.341-1.825a.327.327 0 00.164-.202.328.328 0 00-.028-.258z" fill="#CCC"/><path d="M109.236 83.98l-1.629-2.987-.28-.514-.133-.245a.163.163 0 00-.222-.063l-3.307 1.804-1.493.813a.167.167 0 00-.077.098.162.162 0 00.014.124l.133.243.145.269.136.245v.002l1.628 2.986a.163.163 0 00.22.064l4.799-2.617a.17.17 0 00.05-.041.17.17 0 00.029-.057c.006-.02.008-.042.006-.063a.164.164 0 00-.019-.061z" fill="#558BE4"/><path d="M117.035 82.804a.338.338 0 00-.458-.135l-2.11 1.152-.514.28-2.038 1.11-2.399 1.31a.342.342 0 00-.175.335.344.344 0 00.373.301.345.345 0 00.127-.04l4.437-2.42.514-.28 2.11-1.152a.342.342 0 00.173-.335.331.331 0 00-.04-.126zm1.776.334a.328.328 0 00-.202-.162.341.341 0 00-.258.03l-3.334 1.82-.514.28-4.44 2.42a.34.34 0 00-.051.562.342.342 0 00.376.032l4.437-2.42.514-.281 3.337-1.82a.341.341 0 00.135-.46zm-11.66 7.134a1.437 1.437 0 100-2.874 1.437 1.437 0 000 2.874z" fill="#CCC"/><path d="M108.116 96.915c.242.023.482.066.717.128l16.298-14.458-1.054-5.187 7.62-2.614 2.758 9.001a3.513 3.513 0 01-1.432 3.968l-20.719 13.603a4.618 4.618 0 01-2.838 4.408 4.604 4.604 0 01-5.126-1.094 4.604 4.604 0 01-.791-5.182 4.616 4.616 0 014.567-2.573z" fill="#FFB8B8"/><path d="M136.35 76.08l-4.618-8.819a5.483 5.483 0 00-6.827-3.397 5.5 5.5 0 00-3.531 7.042l1.853 9.746a1.98 1.98 0 00.954 1.341c.269.158.572.247.883.262.256.016.513-.02.755-.105l.99-.346 6.36-2.215 2.08-.724a1.982 1.982 0 001.101-2.786z" fill="#558BE4"/><path d="M153.779 110.093H1.199a.232.232 0 01-.233-.233c0-.062.024-.122.068-.166a.237.237 0 01.165-.068h152.58a.236.236 0 01.234.234.233.233 0 01-.234.233z" fill="#3F3D56"/><path d="M27.485 105.771v.116a4.092 4.092 0 004.09 4.089H69.31v-4.205H27.485z" fill="#3F3D56"/><path d="M95.658 78.052a7.615 7.615 0 00-4.34-3.87 7.562 7.562 0 00-2.497-.423H52.604a7.602 7.602 0 00-7.594 7.594v21.03a7.66 7.66 0 00.318 2.177 7.584 7.584 0 007.276 5.416H88.82a7.588 7.588 0 007.594-7.593v-21.03a7.53 7.53 0 00-.757-3.301z" fill="#3F3D56"/><path d="M72.698 93.737a1.87 1.87 0 100-3.738 1.87 1.87 0 000 3.738z" fill="#fff"/></g><defs><clipPath id="clip0"><path fill="#fff" transform="translate(.966)" d="M0 0h167.136v141.17H0z"/></clipPath></defs></svg>