<svg width="154" height="135" fill="none" xmlns="http://www.w3.org/2000/svg"><g clip-path="url(#clip0)"><path d="M77.05 134.922c-.038-.061-.923-1.535-1.23-4.596-.281-2.808-.1-7.542 2.36-14.144 4.661-12.508-1.074-22.6-1.133-22.701l.283-.164c.015.025 1.495 2.599 2.37 6.696a29.15 29.15 0 01-1.213 16.283c-4.654 12.486-1.194 18.398-1.159 18.456l-.279.17z" fill="#3F3D56"/><path d="M75.226 92.746c1.174 0 2.126-.95 2.126-2.12 0-1.172-.952-2.122-2.126-2.122s-2.125.95-2.125 2.121c0 1.172.951 2.121 2.125 2.121z" fill="#558BE4"/><path d="M81.931 100.577c1.174 0 2.126-.95 2.126-2.12 0-1.172-.952-2.122-2.126-2.122s-2.126.95-2.126 2.121c0 1.172.952 2.121 2.126 2.121z" fill="#3F3D56"/><path d="M77.352 105.798c1.174 0 2.126-.95 2.126-2.121a2.123 2.123 0 00-2.126-2.121 2.123 2.123 0 00-2.125 2.121c0 1.171.951 2.121 2.125 2.121zm5.56 4.404a2.123 2.123 0 002.126-2.12 2.123 2.123 0 00-2.126-2.121 2.123 2.123 0 00-2.125 2.121c0 1.171.951 2.12 2.125 2.12z" fill="#558BE4"/><path d="M75.717 117.054a2.123 2.123 0 002.126-2.12 2.123 2.123 0 00-2.126-2.121 2.123 2.123 0 00-2.126 2.121c0 1.171.952 2.12 2.126 2.12zM78.333 135s-2.126-5.221 4.252-9.136L78.333 135zm-2.613-.095s-.968-5.551-8.456-5.504l8.455 5.504zM26.987 74.644h-.327v40.936h.327V74.644zm9.975-6.299h-.327v53.534h.327V68.345zm9.975-1.783h-.327v57.1h.327v-57.1zm9.975 1.783h-.327v53.534h.327V68.345zm9.975 6.299h-.327v40.936h.327V74.644z" fill="#3F3D56"/><path d="M71.972 81.408H21.574v.326h50.398v-.326zm3.418 13.541H18.157v.326H75.39v-.326zm-3.418 13.541H21.574v.326h50.398v-.326z" fill="#3F3D56"/><path d="M124.938 81.734c15.805 0 28.617-12.782 28.617-28.55 0-15.767-12.812-28.55-28.617-28.55-15.805 0-28.617 12.783-28.617 28.55 0 15.768 12.812 28.55 28.617 28.55z" fill="#558BE4"/><path d="M76.535 47.563h-.327v40.935h.327V47.562zm9.975-6.3h-.327v53.534h.327V41.263zm9.975-1.783h-.327v57.1h.327v-57.1zm9.975 1.783h-.327v53.534h.327V41.263zm9.975 6.3h-.327v40.935h.327V47.562z" fill="#3F3D56"/><path d="M121.52 54.326H71.122v.327h50.398v-.327zm3.418 13.541H67.705v.326h57.233v-.326zm-3.418 13.541H71.122v.326h50.398v-.326z" fill="#3F3D56"/><path d="M118.44 5.396c-7.872 0-14.253 7.066-14.253 15.782V32.25h3.414l1.976-4.103-.494 4.103h21.942l1.796-3.73-.449 3.73h2.47v-8.694c0-10.03-7.343-18.16-16.402-18.16z" fill="#2F2E41"/><path d="M111.56 25.3s4.449 10.355-1.483 12.427l5.932 19.529 10.084-.592 2.669-6.51-.593-9.764-.89-6.51s-6.228 1.48-5.635-9.469l-10.084.888zm-2.373 12.13s-9.787-.887-8.897 6.215c.89 7.101 1.779 8.58 1.779 8.58l.89 10.653-5.338 3.254h-5.042s-15.423 3.551-7.712 7.398c7.711 3.846 10.38-2.959 10.38-2.959s14.237 0 15.127-2.367c.89-2.367-1.187-30.773-1.187-30.773zm18.982-2.958s9.194-3.255 9.787 3.846c.594 7.102.594 7.694.594 7.694l1.779 10.06s3.559 8.877 3.559 11.54c0 2.663 2.669 10.948 2.669 10.948s3.559 11.54-.296 11.244c-3.856-.296-4.449-12.428-4.449-12.428l-8.008-15.978-2.373-9.764-3.262-17.162z" fill="#FFB8B8"/><path d="M110.67 36.247h-2.372l-.297 12.428s-3.856 5.326.89 10.06l1.186 7.693 21.651-.887 1.483-7.99s2.966-6.51-1.186-12.427l-3.856-12.132h-2.076s4.808 17.688-5.339 18.05c-8.304.296-10.084-14.795-10.084-14.795z" fill="#fff"/><path d="M145.112 109.726a74.45 74.45 0 01-23.937 17.859c-.003-14.807.172-26.833.172-26.833s-1.259 12.708-2.858 28.029a74.139 74.139 0 01-28.872 5.811c-.177 0-.354 0-.53-.003 8.16-29.251 20.063-62.777 20.391-63.702a.148.148 0 00.007-.02l.718-2.388.306-1.016.32-1.066.435-1.449 19.278-.59.54 1.209 1.833 4.116c.16.046.311.117.449.21 3.47 2.273 7.845 19.618 11.748 39.833z" fill="#2F2E41"/><path d="M132.618 61.99l-23.43.888s-1.07 7.989 0 7.989c.296 0 24.616 2.071 24.32-1.48-.297-3.55-.89-7.397-.89-7.397z" fill="#3F3D56"/><path d="M116.144 28.688c4.602 0 8.333-3.722 8.333-8.314 0-4.592-3.731-8.314-8.333-8.314s-8.333 3.722-8.333 8.314c0 4.592 3.731 8.314 8.333 8.314z" fill="#FFB8B8"/><path d="M122.492 9.744c-1.431-1.839-3.542-3.003-5.898-3.003h-.28c-5.395 0-9.769 4.87-9.769 10.88h1.808l.292-2.218.428 2.217h10.722l.899-1.876-.225 1.876h2.109c.985 4.877-.43 9.754-4.243 14.631h3.594l1.796-3.751-.449 3.751h6.85l1.348-8.628c0-6.462-3.764-11.942-8.982-13.88z" fill="#2F2E41"/><path d="M124.462 10.652a5.332 5.332 0 005.338-5.326A5.332 5.332 0 00124.462 0a5.332 5.332 0 00-5.339 5.326 5.332 5.332 0 005.339 5.326z" fill="#2F2E41"/><path d="M85.46 70.688a2.68 2.68 0 002.685-2.678 2.68 2.68 0 00-2.684-2.677 2.68 2.68 0 00-2.684 2.677 2.68 2.68 0 002.684 2.678z" fill="#558BE4"/><path d="M85.46 68.01H26.95V44.447h48.67l9.84 23.565z" fill="#EFEFEF"/><path d="M85.728 68.189H19.792v-28.92h53.98l.045.11 11.911 28.81zm-65.578-.357h65.044L73.53 39.626H20.15v28.206z" fill="#3F3D56"/><path d="M65.778 48.195H36.612v2.678h29.166v-2.678zm0 5.535H36.612v2.677h29.166v-2.678zm0 5.533H36.612v2.678h29.166v-2.678z" fill="#3F3D56"/><path d="M1.962 95.658A1.965 1.965 0 01.15 94.449a1.954 1.954 0 011.43-2.67 1.967 1.967 0 012.015.833 1.955 1.955 0 01-.245 2.472 1.967 1.967 0 01-1.387.574zm0-3.59a1.638 1.638 0 00-1.51 1.008A1.628 1.628 0 001.643 95.3a1.638 1.638 0 001.679-.694 1.628 1.628 0 00-.204-2.06 1.64 1.64 0 00-1.156-.478z" fill="#2F2E41"/><path d="M70.941 21.965h-3.228v-3.22h3.228v3.22zm-2.98-.248h2.732v-2.725H67.96v2.725z" fill="#3F3D56"/><path d="M9.888 22.63l-2.201-2.355 2.36-2.197 2.202 2.355-2.36 2.197zm-1.85-2.343L9.9 22.28l1.997-1.859-1.863-1.992-1.998 1.858z" fill="#2F2E41"/></g><defs><clipPath id="clip0"><path fill="#fff" d="M0 0h153.555v135H0z"/></clipPath></defs></svg>