<svg width="170" height="141" fill="none" xmlns="http://www.w3.org/2000/svg"><path d="M107.536 119.26c-.629 0-1.265-.01-1.888-.03l.014-.453c.895.028 1.809.036 2.709.024l.006.453c-.28.004-.56.006-.841.006zm3.57-.105l-.027-.453a59.635 59.635 0 002.7-.221l.048.451a59.13 59.13 0 01-2.721.223zm-8.184-.071a59.9 59.9 0 01-2.717-.27l.055-.45c.892.109 1.799.199 2.696.268l-.034.452zm13.612-.498l-.068-.449c.892-.135 1.79-.292 2.669-.467l.088.445c-.886.176-1.791.334-2.689.471zm-19.03-.166a60.867 60.867 0 01-2.681-.518l.096-.443c.879.191 1.774.363 2.66.513l-.075.448zm24.384-.899l-.109-.44a58.886 58.886 0 002.615-.71l.129.435a58.43 58.43 0 01-2.635.715zm-29.719-.26a58.951 58.951 0 01-2.621-.762l.136-.432c.857.27 1.732.525 2.602.756l-.117.438zm34.953-1.292l-.149-.428a60.968 60.968 0 002.538-.949l.168.421c-.841.337-1.702.658-2.557.956zm-40.165-.355a59.262 59.262 0 01-2.545-1.004l.176-.418c.831.35 1.681.685 2.526.996l-.157.426zm45.227-1.671l-.188-.413c.816-.37 1.635-.766 2.436-1.175l.206.404c-.807.412-1.632.811-2.454 1.184zm-50.268-.452a60.02 60.02 0 01-2.441-1.233l.214-.4c.795.425 1.61.837 2.422 1.224l-.195.409zm55.12-2.028l-.225-.394a59.33 59.33 0 002.32-1.394l.242.383c-.763.483-1.549.956-2.337 1.405zm-59.942-.548a59.638 59.638 0 01-2.316-1.451l.25-.379c.752.496 1.525.981 2.298 1.44l-.232.39zm64.55-2.367l-.26-.372a59.598 59.598 0 002.184-1.601l.276.36a59.622 59.622 0 01-2.2 1.613zm-69.113-.639a59.53 59.53 0 01-2.174-1.655l.283-.355a58.4 58.4 0 002.157 1.643l-.266.367zm73.438-2.685l-.292-.347a60.364 60.364 0 002.03-1.794l.308.333a60.33 60.33 0 01-2.046 1.808zm-77.707-.723a60.866 60.866 0 01-2.012-1.845l.314-.328c.649.624 1.32 1.24 1.997 1.832l-.299.341zm81.714-2.984l-.323-.318a59.37 59.37 0 001.86-1.972l.337.304a60.16 60.16 0 01-1.874 1.986zm-85.652-.796a60.667 60.667 0 01-1.836-2.02l.342-.297a59.263 59.263 0 001.822 2.004l-.328.313zm89.307-3.26l-.35-.288a60.524 60.524 0 001.673-2.133l.363.27a58.38 58.38 0 01-1.686 2.15zM60.746 96.6a59.678 59.678 0 01-1.643-2.178l.368-.265c.525.73 1.074 1.457 1.63 2.162l-.355.28zm96.156-3.514l-.375-.254a58.866 58.866 0 001.472-2.279l.387.238a59.631 59.631 0 01-1.484 2.295zm-99.341-.913a60.164 60.164 0 01-1.438-2.317l.39-.23c.457.773.937 1.547 1.427 2.299l-.38.248zm102.202-3.744l-.397-.22a58.93 58.93 0 001.257-2.404l.407.201c-.402.814-.829 1.63-1.267 2.423zm-104.97-.953c-.422-.8-.833-1.62-1.218-2.438l.41-.193c.383.811.79 1.626 1.21 2.419l-.402.212zm107.391-3.949l-.415-.182c.361-.825.708-1.67 1.031-2.512l.424.163a59.99 59.99 0 01-1.04 2.531zm-109.715-.978a59.251 59.251 0 01-.99-2.538l.427-.155c.306.843.637 1.69.982 2.518l-.419.175zm111.676-4.13l-.43-.143c.283-.853.55-1.724.793-2.59l.437.122a60.086 60.086 0 01-.8 2.61zm-113.539-.994a59.586 59.586 0 01-.753-2.624l.438-.116c.229.871.48 1.747.748 2.605l-.433.135zm115.017-4.262l-.442-.102c.203-.874.389-1.767.552-2.653l.446.082a58.391 58.391 0 01-.556 2.673zM49.221 72.144a59.203 59.203 0 01-.508-2.682l.447-.074c.147.887.317 1.783.505 2.662l-.444.094zm117.39-4.35l-.449-.06c.122-.889.225-1.794.306-2.692l.452.04a59.318 59.318 0 01-.309 2.713zM48.328 66.76a60.235 60.235 0 01-.261-2.718l.452-.033c.066.899.153 1.806.259 2.697l-.45.054zm118.776-4.401l-.453-.02c.041-.899.061-1.81.061-2.709h.454c0 .906-.021 1.824-.062 2.729zM47.929 61.316a61.166 61.166 0 01-.014-2.73l.453.007a59.618 59.618 0 00.014 2.71l-.453.013zm118.78-2.319a59.677 59.677 0 00-.089-2.708l.452-.025c.051.905.081 1.823.09 2.728l-.453.005zM48.476 55.886l-.453-.028a61.29 61.29 0 01.232-2.72l.451.048c-.097.892-.174 1.8-.23 2.7zm117.932-2.298a60.914 60.914 0 00-.335-2.688l.448-.067c.133.897.246 1.809.338 2.71l-.451.045zM49.059 50.501l-.448-.07a59.4 59.4 0 01.48-2.688l.444.09c-.178.88-.338 1.777-.476 2.668zm116.556-2.271a59.862 59.862 0 00-.58-2.647l.441-.107c.213.878.41 1.775.584 2.667l-.445.087zM50.133 45.19l-.44-.11c.22-.878.465-1.764.725-2.632l.434.13c-.258.862-.5 1.74-.719 2.612zm114.201-2.225a59.273 59.273 0 00-.822-2.582l.429-.147c.295.856.573 1.732.828 2.602l-.435.127zm-112.64-2.97l-.428-.15a58.77 58.77 0 01.968-2.56l.42.17c-.338.835-.66 1.69-.96 2.54zm110.879-2.153a59.787 59.787 0 00-1.053-2.49l.413-.185a59.36 59.36 0 011.061 2.508l-.421.167zm-108.844-2.88l-.412-.19a59.56 59.56 0 011.199-2.458l.403.209c-.414.8-.814 1.62-1.19 2.44zm106.624-2.049c-.405-.8-.835-1.602-1.278-2.384l.395-.223a59.55 59.55 0 011.288 2.402l-.405.205zM56.218 30.142l-.393-.227c.453-.785.93-1.571 1.418-2.336l.382.244a59.38 59.38 0 00-1.407 2.319zm101.471-1.936a60.007 60.007 0 00-1.491-2.258l.373-.259c.514.742 1.02 1.508 1.502 2.276l-.384.241zm-98.552-2.635l-.37-.261a60.12 60.12 0 011.624-2.197l.358.278a59.58 59.58 0 00-1.612 2.18zm95.468-1.812a60.643 60.643 0 00-1.692-2.115l.348-.291c.58.693 1.154 1.41 1.704 2.13l-.36.276zm-92.146-2.471l-.345-.294a60.306 60.306 0 011.817-2.039l.332.31a60.13 60.13 0 00-1.804 2.023zm88.668-1.68a60.482 60.482 0 00-1.878-1.953l.319-.321c.642.637 1.279 1.3 1.892 1.967l-.333.307zm-84.97-2.282l-.318-.324a60.101 60.101 0 011.994-1.864l.302.339c-.67.598-1.335 1.22-1.979 1.85zm81.127-1.537a60.002 60.002 0 00-2.048-1.775l.289-.349a60.595 60.595 0 012.064 1.788l-.305.336zm-77.088-2.07l-.286-.352a60.203 60.203 0 012.154-1.674l.27.364a59.83 59.83 0 00-2.138 1.662zm72.912-1.385a60.002 60.002 0 00-2.202-1.582l.256-.374a59.98 59.98 0 012.219 1.594l-.273.362zm-68.563-1.839l-.253-.376c.75-.505 1.523-1 2.297-1.47l.236.387c-.768.467-1.535.958-2.28 1.46zm64.088-1.222a60.398 60.398 0 00-2.339-1.374l.22-.396a59.7 59.7 0 012.357 1.384l-.238.386zm-59.465-1.59l-.218-.397a59.919 59.919 0 012.42-1.254l.2.408c-.806.394-1.614.812-2.402 1.244zm54.726-1.05a59.515 59.515 0 00-2.457-1.154l.183-.415c.83.367 1.663.758 2.476 1.163l-.202.406zm-49.87-1.325l-.18-.416c.83-.36 1.68-.705 2.524-1.026l.16.424c-.837.319-1.68.661-2.503 1.018zm44.905-.87a59.349 59.349 0 00-2.554-.923l.144-.43c.862.29 1.728.603 2.574.93l-.164.424zm-39.846-1.05l-.141-.432a59.3 59.3 0 012.613-.79l.12.437c-.865.24-1.737.504-2.592.784zm34.704-.675a58.954 58.954 0 00-2.622-.682l.104-.442c.882.208 1.771.44 2.642.688l-.124.436zm-29.485-.774l-.1-.442A59.43 59.43 0 0196.876.95l.08.446c-.884.16-1.777.342-2.654.543zm24.212-.469a59.084 59.084 0 00-2.673-.438l.063-.45c.898.127 1.804.275 2.694.442l-.084.446zM99.634.977l-.06-.45c.897-.12 1.81-.22 2.713-.3l.039.453c-.896.078-1.802.178-2.693.297zm13.516-.26a59.63 59.63 0 00-2.702-.193l.022-.453c.907.044 1.823.11 2.723.194l-.043.451zm-8.12-.211l-.019-.453A61.242 61.242 0 01107.536 0h.205l-.001.454h-.204c-.836 0-1.679.017-2.506.052z" fill="#3F3D56"/><path d="M165.619 109.119a2.718 2.718 0 01-2.513-1.68 2.72 2.72 0 112.513 1.68zm0-4.988a2.265 2.265 0 00-2.095 1.399 2.272 2.272 0 001.653 3.092 2.268 2.268 0 10.442-4.491z" fill="#2F2E41"/><path d="M93.248 39.317V54.21a.52.52 0 01-.52.519h-.369v77.576a8.095 8.095 0 01-8.094 8.094H35.792a8.088 8.088 0 01-5.722-2.371 8.096 8.096 0 01-2.37-5.723V57.449h-.267a.367.367 0 01-.367-.365v-8.476a.368.368 0 01.367-.367h.267V45.05h-.27a.385.385 0 01-.383-.386v-8.36a.384.384 0 01.383-.382h.27v-4.358h-.274a.34.34 0 01-.34-.34V26.66a.342.342 0 01.34-.342h.274v-9.237a8.092 8.092 0 018.092-8.092h48.473a8.094 8.094 0 018.094 8.092v21.716h.37a.52.52 0 01.519.52z" fill="#3F3D56"/><path d="M62.364 13.14h-7.877a.576.576 0 00-.576.577v.68c0 .319.258.577.576.577h7.877a.576.576 0 00.576-.576v-.681a.576.576 0 00-.576-.576zm2.982 1.957a1.04 1.04 0 100-2.08 1.04 1.04 0 000 2.08z" fill="#E6E8EC"/><path d="M88.483 18.682v114.293a5.134 5.134 0 01-5.136 5.133h-46.4a5.122 5.122 0 01-3.633-1.501 5.13 5.13 0 01-1.503-3.632V18.682a5.135 5.135 0 015.136-5.135h6.945v.89a4.228 4.228 0 004.228 4.23h23.598a4.229 4.229 0 004.229-4.23v-.89h7.4a5.134 5.134 0 015.136 5.135z" fill="#558BE4"/><path opacity=".2" d="M86.678 51.014H34.077v25.62h52.601v-25.62z" fill="#000"/><path d="M169.208 21.766h-52.601v25.62h52.601v-25.62z" fill="#F2F2F2"/><path d="M86.678 89.848H34.077v25.621h52.601v-25.62z" fill="#3F3D56"/><path d="M81.237 32.032a4.535 4.535 0 100-9.069 4.535 4.535 0 000 9.07z" fill="#fff"/><path d="M83.277 27.352h-1.895v-1.895h-.29v1.895h-1.896v.291h1.895v1.895h.291v-1.895h1.895v-.291zm80.036-8.987h-52.602v25.62h52.602v-25.62z" fill="#3F3D56"/><path d="M134.193 35.567c1.377 5.09 6.094 8.243 6.094 8.243s2.483-5.1 1.106-10.19c-1.376-5.09-6.093-8.243-6.093-8.243s-2.484 5.1-1.107 10.19z" fill="#fff"/><path d="M136.216 34.473c3.779 3.678 4.24 9.333 4.24 9.333s-5.664-.31-9.443-3.988c-3.778-3.678-4.24-9.332-4.24-9.332s5.665.31 9.443 3.987z" fill="#558BE4"/><path d="M55.256 107.441c1.377 5.09 6.093 8.242 6.093 8.242s2.484-5.1 1.107-10.19-6.093-8.242-6.093-8.242-2.484 5.1-1.107 10.19z" fill="#fff"/><path d="M57.279 106.347c3.778 3.678 4.24 9.332 4.24 9.332s-5.665-.309-9.443-3.988c-3.779-3.678-4.24-9.332-4.24-9.332s5.665.309 9.443 3.988z" fill="#558BE4"/><path d="M67.782 107.441c-1.377 5.09-6.093 8.242-6.093 8.242s-2.484-5.1-1.107-10.19 6.093-8.242 6.093-8.242 2.484 5.1 1.107 10.19z" fill="#fff"/><path d="M65.758 106.297c-3.778 3.678-4.24 9.332-4.24 9.332s5.665-.309 9.444-3.988c3.778-3.678 4.24-9.332 4.24-9.332s-5.665.309-9.444 3.988z" fill="#558BE4"/><path d="M122.502 76.308h-4.476v-4.476h4.476v4.476zm-4.132-.344h3.787v-3.787h-3.787v3.787z" fill="#3F3D56"/><path d="M4.975 103.988l-3.053-3.273 3.273-3.053 3.053 3.273-3.273 3.053zm-2.567-3.256l2.584 2.769 2.77-2.583-2.584-2.77-2.77 2.584z" fill="#2F2E41"/><path d="M7.393 33.564a2.285 2.285 0 100-4.57 2.285 2.285 0 000 4.57z" fill="#3F3D56"/><path d="M7.393 37.88a6.601 6.601 0 116.602-6.601 6.609 6.609 0 01-6.602 6.601zm0-12.695a6.094 6.094 0 106.094 6.094 6.1 6.1 0 00-6.094-6.094z" fill="#2F2E41"/><path d="M98.015 46.933H45.414v25.62h52.6v-25.62z" fill="#3F3D56"/><path d="M71.975 55.718h-.454v16.871h.454V55.718z" fill="#fff"/><path d="M71.748 58.28a2.386 2.386 0 100-4.772 2.386 2.386 0 000 4.772z" fill="#558BE4"/><path d="M71.747 66.116s-.34-7.33-7.328-6.479l7.328 6.479z" fill="#fff"/><path d="M144.768 116.629l-29.178 9.128-36.297-22.904-.002-.002-.118-.073-.02-.013-.289-.181-3.455-2.174a1.566 1.566 0 01.381-.897c.063-.074.131-.143.206-.205h.001a1.758 1.758 0 01.215-.16c.669-.448 1.676-.64 2.726-.696a12.971 12.971 0 016.541 1.418c4.08 2.064 12.85 6.124 14.218 3.637 1.793-3.26-18.583-39.61-18.583-39.61-1.677-4.312-.45-5.72.32-6.164l.066-.038a1.897 1.897 0 01.429-.156l2.703 3.593.04.053.145.194.044.059 16.384 21.774c25.103-13.53 33.743 22.658 33.743 22.658l9.78 10.759z" fill="#FBBEBE"/><path d="M84.861 61.438a.71.71 0 01-.657.4c-.09 0-.18-.013-.267-.036-.606-.163-1.309-.828-1.834-1.736-.512-.887-.722-1.779-.603-2.37a1.897 1.897 0 01.391-.149c-.21.413-.084 1.35.496 2.356.474.823 1.117 1.445 1.633 1.582a.443.443 0 00.612-.353l.04.053.145.194.044.06zm-5.689 41.34l-.02-.013-.288-.181c.001-.464-.35-1.226-1.128-1.99-.657-.64-1.42-1.061-1.946-1.08.062-.075.13-.144.205-.206h.001c.033-.028.067-.056.103-.082.71.21 1.353.6 1.865 1.135.854.839 1.324 1.796 1.208 2.417z" fill="#3F3D56"/></svg>